<svg width="25" height="25" viewBox="0 0 25 25" fill="none" xmlns="http://www.w3.org/2000/svg">
<path d="M24.9365 7.35009C24.8779 6.02174 24.663 5.10851 24.3553 4.31719C24.0378 3.47721 23.5493 2.72519 22.9093 2.10003C22.284 1.46513 21.5269 0.971796 20.6965 0.65931C19.9004 0.351594 18.9918 0.136784 17.6632 0.0782168C16.3247 0.0146895 15.8997 0 12.5049 0C9.10999 0 8.68506 0.0146895 7.35149 0.0732567C6.02289 0.131824 5.10949 0.346825 4.3182 0.65435C3.47788 0.971796 2.72571 1.46017 2.10043 2.10003C1.46541 2.72519 0.972172 3.48217 0.659436 4.31242C0.351661 5.10851 0.13681 6.01678 0.0782317 7.34513C0.0146923 8.6834 0 9.10825 0 12.5025C0 15.8967 0.0146923 16.3216 0.0732707 17.6549C0.131849 18.9832 0.346891 19.8964 0.654666 20.6878C0.972172 21.5277 1.46541 22.2798 2.10043 22.9049C2.72571 23.5398 3.48284 24.0332 4.31324 24.3456C5.10949 24.6534 6.01793 24.8682 7.34672 24.9267C8.6801 24.9855 9.10522 25 12.5001 25C15.895 25 16.3199 24.9855 17.6535 24.9267C18.9821 24.8682 19.8955 24.6534 20.6868 24.3456C22.3672 23.6961 23.6958 22.3677 24.3455 20.6878C24.6531 19.8917 24.8682 18.9832 24.9267 17.6549C24.9853 16.3216 25 15.8967 25 12.5025C25 9.10825 24.995 8.6834 24.9365 7.35009ZM22.6847 17.5572C22.6309 18.7781 22.4258 19.4374 22.2548 19.877C21.8347 20.9661 20.9701 21.8305 19.8808 22.2506C19.4412 22.4215 18.777 22.6266 17.5605 22.6802C16.2417 22.739 15.8461 22.7535 12.5098 22.7535C9.17353 22.7535 8.77302 22.739 7.45892 22.6802C6.23774 22.6266 5.5783 22.4215 5.13868 22.2506C4.59659 22.0503 4.10316 21.7328 3.70265 21.3177C3.28745 20.9123 2.96994 20.4239 2.76959 19.882C2.59863 19.4424 2.39351 18.7781 2.33989 17.5622C2.28112 16.2435 2.26662 15.8479 2.26662 12.5122C2.26662 9.17655 2.28112 8.77612 2.33989 7.46246C2.39351 6.24151 2.59863 5.5822 2.76959 5.14266C2.96994 4.60048 3.28745 4.10734 3.70761 3.70671C4.11289 3.29159 4.60136 2.97415 5.14364 2.77403C5.58327 2.60309 6.24766 2.39801 7.46388 2.34422C8.78275 2.28565 9.17849 2.27096 12.5146 2.27096C15.8559 2.27096 16.2514 2.28565 17.5655 2.34422C18.7867 2.39801 19.4461 2.60309 19.8857 2.77403C20.4278 2.97415 20.9213 3.29159 21.3218 3.70671C21.737 4.11211 22.0545 4.60048 22.2548 5.14266C22.4258 5.5822 22.6309 6.24628 22.6847 7.46246C22.7433 8.78108 22.758 9.17655 22.758 12.5122C22.758 15.8479 22.7433 16.2386 22.6847 17.5572Z" fill="url(#paint0_linear)"/>
<path d="M12.5049 6.08032C8.95874 6.08032 6.08152 8.95679 6.08152 12.5025C6.08152 16.0482 8.95874 18.9247 12.5049 18.9247C16.0513 18.9247 18.9283 16.0482 18.9283 12.5025C18.9283 8.95679 16.0513 6.08032 12.5049 6.08032ZM12.5049 16.6684C10.2043 16.6684 8.33822 14.8028 8.33822 12.5025C8.33822 10.2022 10.2043 8.33658 12.5049 8.33658C14.8057 8.33658 16.6716 10.2022 16.6716 12.5025C16.6716 14.8028 14.8057 16.6684 12.5049 16.6684Z" fill="url(#paint1_linear)"/>
<path d="M20.682 5.82639C20.682 6.65435 20.0106 7.32568 19.1823 7.32568C18.3541 7.32568 17.6827 6.65435 17.6827 5.82639C17.6827 4.99825 18.3541 4.32711 19.1823 4.32711C20.0106 4.32711 20.682 4.99825 20.682 5.82639Z" fill="url(#paint2_linear)"/>
<defs>
<linearGradient id="paint0_linear" x1="12.5" y1="0" x2="12.5" y2="25" gradientUnits="userSpaceOnUse">
<stop stop-color="#405DE6"/>
<stop offset="0.213542" stop-color="#5851DB"/>
<stop offset="0.375" stop-color="#833AB4"/>
<stop offset="0.505208" stop-color="#C13584"/>
<stop offset="0.6875" stop-color="#E1306C"/>
<stop offset="0.786458" stop-color="#FD1D1D"/>
<stop offset="0.880208" stop-color="#F56040"/>
<stop offset="0.947917" stop-color="#F77737"/>
<stop offset="1" stop-color="#FCAF45"/>
</linearGradient>
<linearGradient id="paint1_linear" x1="12.5" y1="0" x2="12.5" y2="25" gradientUnits="userSpaceOnUse">
<stop stop-color="#405DE6"/>
<stop offset="0.213542" stop-color="#5851DB"/>
<stop offset="0.375" stop-color="#833AB4"/>
<stop offset="0.505208" stop-color="#C13584"/>
<stop offset="0.6875" stop-color="#E1306C"/>
<stop offset="0.786458" stop-color="#FD1D1D"/>
<stop offset="0.880208" stop-color="#F56040"/>
<stop offset="0.947917" stop-color="#F77737"/>
<stop offset="1" stop-color="#FCAF45"/>
</linearGradient>
<linearGradient id="paint2_linear" x1="12.5" y1="0" x2="12.5" y2="25" gradientUnits="userSpaceOnUse">
<stop stop-color="#405DE6"/>
<stop offset="0.213542" stop-color="#5851DB"/>
<stop offset="0.375" stop-color="#833AB4"/>
<stop offset="0.505208" stop-color="#C13584"/>
<stop offset="0.6875" stop-color="#E1306C"/>
<stop offset="0.786458" stop-color="#FD1D1D"/>
<stop offset="0.880208" stop-color="#F56040"/>
<stop offset="0.947917" stop-color="#F77737"/>
<stop offset="1" stop-color="#FCAF45"/>
</linearGradient>
</defs>
</svg>
