<?xml version="1.0" encoding="utf-8"?>
<!-- Generator: Adobe Illustrator 22.0.1, SVG Export Plug-In . SVG Version: 6.00 Build 0)  -->
<svg version="1.1" id="Layer_1" xmlns="http://www.w3.org/2000/svg" xmlns:xlink="http://www.w3.org/1999/xlink" x="0px" y="0px"
	 viewBox="0 0 512 512" style="enable-background:new 0 0 512 512;" xml:space="preserve">
<style type="text/css">
	.st0{fill:transparent;}
	.st1{fill:#81c90f;}
</style>
<circle class="st0" cx="251.9" cy="197.9" r="119.9"/>
<g>
	<g>
		<path class="st1" d="M256,0C150.1,0,64,86.1,64,192c0,141.6,177.1,310,184.7,317.1c2.1,1.9,4.7,2.9,7.3,2.9s5.3-1,7.3-2.9
			C270.9,502,448,333.6,448,192C448,86.1,361.9,0,256,0z M256,298.7c-58.8,0-106.7-47.9-106.7-106.7S197.2,85.3,256,85.3
			S362.7,133.2,362.7,192S314.8,298.7,256,298.7z"/>
	</g>
</g>
</svg>
